<mxfile host="app.diagrams.net" modified="2023-11-08T15:40:32.569Z" agent="Mozilla/5.0 (Windows NT 10.0; Win64; x64) AppleWebKit/537.36 (KHTML, like Gecko) Chrome/116.0.5845.837 YaBrowser/23.9.4.837 Yowser/2.5 Safari/537.36" etag="S204OQQrb1OBhzx3uIOI" version="22.0.8" type="github">
  <diagram name="Страница — 1" id="erGWvgvKIiy5Z0V9N_18">
    <mxGraphModel dx="936" dy="480" grid="1" gridSize="10" guides="1" tooltips="1" connect="1" arrows="1" fold="1" page="1" pageScale="1" pageWidth="827" pageHeight="1169" math="0" shadow="0">
      <root>
        <mxCell id="0" />
        <mxCell id="1" parent="0" />
        <mxCell id="lMbuzqP3FoLXJBJa7XZw-1" value="" style="shape=folder;fontStyle=1;spacingTop=10;tabWidth=60;tabHeight=30;tabPosition=left;html=1;whiteSpace=wrap;" vertex="1" parent="1">
          <mxGeometry x="260" y="50" width="210" height="140" as="geometry" />
        </mxCell>
        <mxCell id="lMbuzqP3FoLXJBJa7XZw-2" value="WebUI" style="shape=folder;fontStyle=1;spacingTop=10;tabWidth=40;tabHeight=14;tabPosition=left;html=1;whiteSpace=wrap;" vertex="1" parent="1">
          <mxGeometry x="380" y="120" width="70" height="50" as="geometry" />
        </mxCell>
        <mxCell id="lMbuzqP3FoLXJBJa7XZw-3" value="MobileUI" style="shape=folder;fontStyle=1;spacingTop=10;tabWidth=40;tabHeight=14;tabPosition=left;html=1;whiteSpace=wrap;" vertex="1" parent="1">
          <mxGeometry x="280" y="120" width="70" height="50" as="geometry" />
        </mxCell>
        <mxCell id="lMbuzqP3FoLXJBJa7XZw-4" value="UI" style="text;align=center;fontStyle=1;verticalAlign=middle;spacingLeft=3;spacingRight=3;strokeColor=none;rotatable=0;points=[[0,0.5],[1,0.5]];portConstraint=eastwest;html=1;" vertex="1" parent="1">
          <mxGeometry x="250" y="40" width="80" height="46" as="geometry" />
        </mxCell>
        <mxCell id="lMbuzqP3FoLXJBJa7XZw-5" value="" style="shape=folder;fontStyle=1;spacingTop=10;tabWidth=110;tabHeight=30;tabPosition=left;html=1;whiteSpace=wrap;" vertex="1" parent="1">
          <mxGeometry x="40" y="240" width="410" height="380" as="geometry" />
        </mxCell>
        <mxCell id="lMbuzqP3FoLXJBJa7XZw-6" value="" style="shape=folder;fontStyle=1;spacingTop=10;tabWidth=120;tabHeight=30;tabPosition=left;html=1;whiteSpace=wrap;" vertex="1" parent="1">
          <mxGeometry x="510" y="165" width="150" height="350" as="geometry" />
        </mxCell>
        <mxCell id="lMbuzqP3FoLXJBJa7XZw-7" value="Data Management" style="text;align=center;fontStyle=1;verticalAlign=middle;spacingLeft=3;spacingRight=3;strokeColor=none;rotatable=0;points=[[0,0.5],[1,0.5]];portConstraint=eastwest;html=1;" vertex="1" parent="1">
          <mxGeometry x="530" y="165" width="80" height="26" as="geometry" />
        </mxCell>
        <mxCell id="lMbuzqP3FoLXJBJa7XZw-8" value="Client DB" style="shape=folder;fontStyle=1;spacingTop=10;tabWidth=40;tabHeight=14;tabPosition=left;html=1;whiteSpace=wrap;" vertex="1" parent="1">
          <mxGeometry x="520" y="205" width="70" height="50" as="geometry" />
        </mxCell>
        <mxCell id="lMbuzqP3FoLXJBJa7XZw-9" value="Master DB" style="shape=folder;fontStyle=1;spacingTop=10;tabWidth=40;tabHeight=14;tabPosition=left;html=1;whiteSpace=wrap;" vertex="1" parent="1">
          <mxGeometry x="520" y="265" width="70" height="50" as="geometry" />
        </mxCell>
        <mxCell id="lMbuzqP3FoLXJBJa7XZw-10" value="Order DB" style="shape=folder;fontStyle=1;spacingTop=10;tabWidth=40;tabHeight=14;tabPosition=left;html=1;whiteSpace=wrap;" vertex="1" parent="1">
          <mxGeometry x="520" y="325" width="70" height="50" as="geometry" />
        </mxCell>
        <mxCell id="lMbuzqP3FoLXJBJa7XZw-11" value="Service DB" style="shape=folder;fontStyle=1;spacingTop=10;tabWidth=40;tabHeight=14;tabPosition=left;html=1;whiteSpace=wrap;" vertex="1" parent="1">
          <mxGeometry x="520" y="385" width="70" height="50" as="geometry" />
        </mxCell>
        <mxCell id="lMbuzqP3FoLXJBJa7XZw-12" value="Feedback DB" style="shape=folder;fontStyle=1;spacingTop=10;tabWidth=40;tabHeight=14;tabPosition=left;html=1;whiteSpace=wrap;" vertex="1" parent="1">
          <mxGeometry x="520" y="445" width="70" height="50" as="geometry" />
        </mxCell>
        <mxCell id="lMbuzqP3FoLXJBJa7XZw-13" style="edgeStyle=orthogonalEdgeStyle;rounded=0;orthogonalLoop=1;jettySize=auto;html=1;entryX=0.5;entryY=1;entryDx=0;entryDy=0;entryPerimeter=0;dashed=1;endArrow=open;endFill=0;dashPattern=8 8;exitX=0;exitY=0;exitDx=260;exitDy=30;exitPerimeter=0;" edge="1" parent="1" source="lMbuzqP3FoLXJBJa7XZw-5" target="lMbuzqP3FoLXJBJa7XZw-1">
          <mxGeometry relative="1" as="geometry" />
        </mxCell>
        <mxCell id="lMbuzqP3FoLXJBJa7XZw-14" style="edgeStyle=orthogonalEdgeStyle;rounded=0;orthogonalLoop=1;jettySize=auto;html=1;entryX=0;entryY=0;entryDx=0;entryDy=190;entryPerimeter=0;dashed=1;dashPattern=8 8;endArrow=open;endFill=0;" edge="1" parent="1" source="lMbuzqP3FoLXJBJa7XZw-5" target="lMbuzqP3FoLXJBJa7XZw-6">
          <mxGeometry relative="1" as="geometry" />
        </mxCell>
        <mxCell id="lMbuzqP3FoLXJBJa7XZw-15" value="External System" style="shape=folder;fontStyle=1;spacingTop=10;tabWidth=40;tabHeight=14;tabPosition=left;html=1;whiteSpace=wrap;" vertex="1" parent="1">
          <mxGeometry x="190" y="660" width="70" height="50" as="geometry" />
        </mxCell>
        <mxCell id="lMbuzqP3FoLXJBJa7XZw-16" value="Analytics System" style="shape=folder;fontStyle=1;spacingTop=10;tabWidth=40;tabHeight=14;tabPosition=left;html=1;whiteSpace=wrap;" vertex="1" parent="1">
          <mxGeometry x="530" y="570" width="70" height="50" as="geometry" />
        </mxCell>
        <mxCell id="lMbuzqP3FoLXJBJa7XZw-17" style="edgeStyle=orthogonalEdgeStyle;rounded=0;orthogonalLoop=1;jettySize=auto;html=1;entryX=0;entryY=0;entryDx=55;entryDy=14;entryPerimeter=0;dashed=1;dashPattern=8 8;endArrow=open;endFill=0;" edge="1" parent="1" source="lMbuzqP3FoLXJBJa7XZw-5" target="lMbuzqP3FoLXJBJa7XZw-15">
          <mxGeometry relative="1" as="geometry" />
        </mxCell>
        <mxCell id="lMbuzqP3FoLXJBJa7XZw-18" style="edgeStyle=orthogonalEdgeStyle;rounded=0;orthogonalLoop=1;jettySize=auto;html=1;exitX=0;exitY=0;exitDx=55;exitDy=14;exitPerimeter=0;entryX=0.5;entryY=1;entryDx=0;entryDy=0;entryPerimeter=0;dashed=1;dashPattern=8 8;endArrow=open;endFill=0;" edge="1" parent="1" source="lMbuzqP3FoLXJBJa7XZw-16" target="lMbuzqP3FoLXJBJa7XZw-6">
          <mxGeometry relative="1" as="geometry" />
        </mxCell>
        <mxCell id="lMbuzqP3FoLXJBJa7XZw-19" value="BeautySalon" style="html=1;whiteSpace=wrap;" vertex="1" parent="1">
          <mxGeometry x="264" y="325" width="80" height="30" as="geometry" />
        </mxCell>
        <mxCell id="lMbuzqP3FoLXJBJa7XZw-20" value="PriceList" style="html=1;whiteSpace=wrap;" vertex="1" parent="1">
          <mxGeometry x="260" y="385" width="80" height="30" as="geometry" />
        </mxCell>
        <mxCell id="lMbuzqP3FoLXJBJa7XZw-21" value="Content" style="html=1;whiteSpace=wrap;" vertex="1" parent="1">
          <mxGeometry x="100" y="345" width="80" height="30" as="geometry" />
        </mxCell>
        <mxCell id="lMbuzqP3FoLXJBJa7XZw-22" value="Order" style="html=1;whiteSpace=wrap;" vertex="1" parent="1">
          <mxGeometry x="100" y="550" width="80" height="30" as="geometry" />
        </mxCell>
        <mxCell id="lMbuzqP3FoLXJBJa7XZw-23" value="Client" style="html=1;whiteSpace=wrap;" vertex="1" parent="1">
          <mxGeometry x="100" y="510" width="70" height="30" as="geometry" />
        </mxCell>
        <mxCell id="lMbuzqP3FoLXJBJa7XZw-24" value="Feedback" style="html=1;whiteSpace=wrap;" vertex="1" parent="1">
          <mxGeometry x="100" y="380" width="80" height="30" as="geometry" />
        </mxCell>
        <mxCell id="lMbuzqP3FoLXJBJa7XZw-25" value="Service" style="html=1;whiteSpace=wrap;" vertex="1" parent="1">
          <mxGeometry x="100" y="420" width="80" height="30" as="geometry" />
        </mxCell>
        <mxCell id="lMbuzqP3FoLXJBJa7XZw-26" value="Master" style="html=1;whiteSpace=wrap;" vertex="1" parent="1">
          <mxGeometry x="100" y="470" width="80" height="30" as="geometry" />
        </mxCell>
        <mxCell id="lMbuzqP3FoLXJBJa7XZw-27" value="Salon System" style="text;align=center;fontStyle=1;verticalAlign=middle;spacingLeft=3;spacingRight=3;strokeColor=none;rotatable=0;points=[[0,0.5],[1,0.5]];portConstraint=eastwest;html=1;" vertex="1" parent="1">
          <mxGeometry x="50" y="240" width="80" height="26" as="geometry" />
        </mxCell>
      </root>
    </mxGraphModel>
  </diagram>
</mxfile>
